<?xml version="1.0" encoding="UTF-8" standalone="no"?>
<svg
   xmlns:dc="http://purl.org/dc/elements/1.1/"
   xmlns:cc="http://creativecommons.org/ns#"
   xmlns:rdf="http://www.w3.org/1999/02/22-rdf-syntax-ns#"
   xmlns:svg="http://www.w3.org/2000/svg"
   xmlns="http://www.w3.org/2000/svg"
   xmlns:sodipodi="http://sodipodi.sourceforge.net/DTD/sodipodi-0.dtd"
   xmlns:inkscape="http://www.inkscape.org/namespaces/inkscape"
   xml:space="preserve"
   version="1.1"
   style="clip-rule:evenodd;fill-rule:evenodd;image-rendering:optimizeQuality;shape-rendering:geometricPrecision;text-rendering:geometricPrecision"
   viewBox="0 0 451.75 451.75"
   x="0px"
   y="0px"
   id="svg14"
   sodipodi:docname="delete.svg"
   width="451.75"
   height="451.75"
   inkscape:version="0.92.3 (2405546, 2018-03-11)"><metadata
     id="metadata18"><rdf:RDF><cc:Work
         rdf:about=""><dc:format>image/svg+xml</dc:format><dc:type
           rdf:resource="http://purl.org/dc/dcmitype/StillImage" /><dc:title></dc:title></cc:Work></rdf:RDF></metadata><sodipodi:namedview
     pagecolor="#ffffff"
     bordercolor="#666666"
     borderopacity="1"
     objecttolerance="10"
     gridtolerance="10"
     guidetolerance="10"
     inkscape:pageopacity="0"
     inkscape:pageshadow="2"
     inkscape:window-width="1920"
     inkscape:window-height="986"
     id="namedview16"
     showgrid="false"
     inkscape:zoom="1"
     inkscape:cx="-259.09557"
     inkscape:cy="238.29787"
     inkscape:window-x="-11"
     inkscape:window-y="-11"
     inkscape:window-maximized="1"
     inkscape:current-layer="svg14" /><defs
     id="defs4"><style
       type="text/css"
       id="style2">
   
    .fil0 {fill:black}
   
  </style></defs><g
     id="g8"
     transform="translate(0.25,0.25)"><path
       class="fil0"
       d="M 435,17 C 412,-6 376,-6 353,17 L 226,145 98,17 C 76,-6 39,-6 17,17 -6,39 -6,76 17,98 L 145,226 17,353 c -23,23 -23,59 0,82 22,22 59,22 81,0 L 226,307 353,435 c 23,22 59,22 82,0 22,-23 22,-59 0,-82 L 307,226 435,98 c 22,-22 22,-59 0,-81 z"
       id="path6"
       inkscape:connector-curvature="0"
       style="fill:#000000" /></g></svg>