<?xml version="1.0" encoding="UTF-8" standalone="no"?>
<svg
   xmlns:dc="http://purl.org/dc/elements/1.1/"
   xmlns:cc="http://creativecommons.org/ns#"
   xmlns:rdf="http://www.w3.org/1999/02/22-rdf-syntax-ns#"
   xmlns:svg="http://www.w3.org/2000/svg"
   xmlns="http://www.w3.org/2000/svg"
   xmlns:sodipodi="http://sodipodi.sourceforge.net/DTD/sodipodi-0.dtd"
   xmlns:inkscape="http://www.inkscape.org/namespaces/inkscape"
   version="1.1"
   x="0px"
   y="0px"
   viewBox="0 0 60 59.999001"
   enable-background="new 0 0 100 100"
   xml:space="preserve"
   id="svg8"
   sodipodi:docname="plus.svg"
   width="60"
   height="59.999001"
   inkscape:version="0.92.3 (2405546, 2018-03-11)"><metadata
     id="metadata14"><rdf:RDF><cc:Work
         rdf:about=""><dc:format>image/svg+xml</dc:format><dc:type
           rdf:resource="http://purl.org/dc/dcmitype/StillImage" /><dc:title></dc:title></cc:Work></rdf:RDF></metadata><defs
     id="defs12" /><sodipodi:namedview
     pagecolor="#ffffff"
     bordercolor="#666666"
     borderopacity="1"
     objecttolerance="10"
     gridtolerance="10"
     guidetolerance="10"
     inkscape:pageopacity="0"
     inkscape:pageshadow="2"
     inkscape:window-width="777"
     inkscape:window-height="480"
     id="namedview10"
     showgrid="false"
     fit-margin-top="0"
     fit-margin-left="0"
     fit-margin-right="0"
     fit-margin-bottom="0"
     inkscape:zoom="1.888"
     inkscape:cx="36.885594"
     inkscape:cy="17.5"
     inkscape:window-x="0"
     inkscape:window-y="0"
     inkscape:window-maximized="0"
     inkscape:current-layer="svg8" /><path
     d="m 54.005001,23.836 c 1.706,0.001 3.12,0.584 4.244,1.752 1.121,1.168 1.703,2.626 1.751,4.377 -10e-4,1.617 -0.607,3.031 -1.819,4.243 -1.212,1.212 -2.648,1.841 -4.308,1.885 l -17.577,0.066 -0.067,17.577 c 0,1.616 -0.596,3.063 -1.785,4.343 -1.19,1.279 -2.682,1.918 -4.477,1.92 -1.616,0 -3.042,-0.618 -4.276,-1.853 -1.235,-1.235 -1.829,-2.771 -1.785,-4.614 l -0.135,-17.373 -17.5749999,0.068 c -1.527,-0.089 -2.941,-0.695 -4.242,-1.818 C 0.65300115,33.286 -9.9885496e-4,31.828 1.1450417e-6,30.033 1.1450417e-6,28.417 0.56100115,26.98 1.6840011,25.722 c 1.122,-1.256 2.559,-1.907 4.31,-1.953 H 23.906001 V 5.858 c -0.001,-1.705 0.605,-3.075 1.817,-4.108 1.213,-1.032 2.648,-1.616 4.312,-1.75 1.972,0 3.477,0.606 4.512,1.818 1.029,1.212 1.593,2.671 1.683,4.377 l -0.001,17.508 z"
     id="path2"
     inkscape:connector-curvature="0" /></svg>